PathFileType	4	(X/Y/Z)	C:\Users\°ÂÌØÂü\Desktop\20210112\bx_n_10_501-Unnamed.trc
DataRate	CameraRate	NumFrames	NumMarkers	Units	OrigDataRate	OrigDataStartFrame	OrigNumFrames
50.00	50.00	       4	0	mm	50.00	219	       436
Frame#	Time	
		

219	4.360	-698.59753	87.69292	1849.17041	-722.82892	264.23578	1551.73206	-632.01147	236.94223	1070.69934	-717.34314	69.16699	217.16000	-620.66772	96.57991	1358.40820	-716.38348	266.39142	747.05621	-742.87769	247.79300	643.85864	-743.04535	245.06721	577.68506	-687.02002	205.48706	537.05798	-781.44922	254.56364	502.51706	-517.73938	-72.87245	142.80782	-548.81696	-30.71695	162.33209	-791.22955	39.33056	174.30215	-604.99023	214.54915	819.85089	-597.21008	24.82893	167.46835	-672.00507	52.11654	159.06636	-712.71021	154.19431	217.74500	-795.55475	177.12660	183.44766	-769.34247	226.97435	204.98302	-592.24573	220.80280	174.19168	-882.60938	295.91949	144.45216	-556.79126	257.34109	164.61525	-661.28778	299.16412	156.80785	-624.84052	307.82877	157.61525	-528.11450	304.37653	146.40186	-712.55518	-84.91000	1537.17798	-598.09430	-10.19114	808.16516	-763.43903	-46.53510	488.63852	-758.30518	-19.27034	206.89894	-876.04169	-78.95963	141.37299	-675.39923	-75.45045	875.25183	-820.62415	84.91525	1056.48010				-698.58759	71.31705	574.99066	-699.15692	143.74446	578.96014	-674.77173	174.37279	158.88895	-607.73212	-77.13232	156.80496	-649.12628	-69.73042	160.86302				-711.62994	277.26465	877.11841	-670.06427	14.59095	521.43597				-695.83679	-63.55704	760.29858	-714.77356	-38.03582	616.68915	-721.24500	-34.85292	569.01788	
220	4.380	-692.60400	88.00196	1849.24951	-720.51880	264.24030	1552.03284	-632.60669	237.06068	1070.49121	-717.88983	69.47223	216.93266	-620.30396	96.51616	1358.00183	-717.14996	267.00107	747.37823	-743.84485	247.88751	643.84918	-743.70551	245.28699	577.87756	-687.83453	205.71016	537.09229	-781.96014	255.07808	502.49149	-517.64813	-73.21793	143.07788	-548.79852	-30.66890	162.48445	-791.24554	39.39186	174.32924	-605.80457	214.66423	820.09662	-597.14948	24.86334	167.33714	-672.06757	52.32225	158.87405	-712.71582	153.99402	218.04340	-795.54193	177.19194	183.53023	-769.30792	227.02725	204.71542	-592.56177	220.83261	173.80811	-882.45520	296.03870	144.56952	-556.66980	257.27045	164.39969	-661.23419	299.16083	156.71921	-624.84052	307.82877	157.61525	-528.11450	304.37653	146.40186	-710.48541	-85.07793	1537.13623	-599.28510	-10.01212	807.99744	-764.04510	-46.28611	488.38446	-758.36926	-19.09939	206.68997	-875.93561	-78.84620	141.20265	-676.62744	-75.27562	875.45850	-821.38263	84.97788	1056.90723				-699.19586	71.34514	574.95758	-700.34399	143.22987	579.19586	-674.77173	174.37279	158.88895	-607.73212	-77.13232	156.80496	-649.21417	-69.46523	160.74525				-712.44897	277.56866	877.03888	-670.49109	14.46531	521.47766				-696.60529	-63.79751	760.41345	-715.48450	-37.96593	616.75098	-721.79016	-34.71701	569.18518	
221	4.400	-685.89319	87.79542	1849.05762	-717.86316	263.99017	1552.01904	-633.41272	237.15561	1070.54382	-717.63171	69.37056	217.07149	-619.52429	96.46465	1357.41235	-718.55127	266.74713	746.94128	-744.91266	248.09200	643.93536	-744.36041	245.72926	577.85840	-688.42853	205.83128	537.35114	-782.25177	255.41267	502.38919	-517.56409	-73.08876	143.24149	-548.67511	-30.79615	162.56807	-791.25610	39.40361	174.33853	-607.37720	215.16530	819.80524	-597.37067	24.94392	167.45293	-671.95685	52.42763	159.22757	-712.61902	153.99731	218.16083	-795.54193	177.19194	183.53023	-769.48071	227.35374	204.93719	-592.22278	220.91035	174.29002	-882.56842	296.04892	144.50932	-556.60364	257.21555	164.43185	-661.39209	298.98920	156.62019	-624.84052	307.82877	157.61525	-528.11450	304.37653	146.40186	-708.59442	-85.15511	1536.70386	-599.90387	-10.14620	808.36133	-764.24347	-46.22274	488.18097	-758.74457	-18.40701	205.95311	-875.93073	-78.79627	141.25227	-678.13861	-75.01228	875.05658	-822.84766	84.65508	1057.47815				-699.91046	71.53543	574.82574	-700.70361	143.33139	579.25977	-674.55255	174.35027	159.17538	-607.82697	-76.97411	156.70973	-649.12903	-69.42773	160.77727				-714.03589	277.64163	877.24121	-671.35437	14.84025	521.26086				-697.85260	-63.54165	759.89203	-716.63196	-38.30369	616.75262	-722.52130	-34.68900	569.31989	
222	4.420	-678.78058	87.94107	1848.88513	-715.06165	264.05511	1551.77795	-634.91632	237.40785	1070.50610	-717.88983	69.47223	216.93266	-618.93536	96.06651	1356.37219	-719.28516	266.45374	746.87531	-745.60431	248.13036	644.07751	-744.74170	245.44705	577.62524	-689.09924	205.84076	537.05963	-782.50598	255.36957	502.23248	-517.62390	-73.25500	143.02069	-548.73779	-30.74687	162.49597	-791.23651	39.47162	174.23460	-608.20258	214.87135	820.08344	-597.35516	25.02628	167.41255	-672.07202	52.52164	159.32779	-712.77924	154.20041	218.07376	-795.54004	177.25653	183.59802	-769.58472	227.40347	204.81020	-592.40698	220.93979	174.29736	-882.55273	296.27115	144.72351	-556.59235	257.11237	164.45363	-661.27478	299.08063	156.69363	-624.84052	307.82877	157.61525	-527.91150	303.97452	146.55840	-706.52661	-85.65416	1536.62622	-601.71228	-10.05229	808.06354	-764.72003	-46.41056	488.05588	-758.56757	-19.21346	206.67445	-876.03687	-78.90970	141.42259	-679.35883	-74.80176	874.79156	-823.92218	84.97981	1057.66125				-700.70111	71.60240	575.03540	-701.97754	143.36211	578.83685	-674.68384	174.36267	159.29298	-607.73212	-77.13232	156.80496	-649.36176	-69.34657	160.62753				-714.88153	277.57541	876.93335	-672.18274	14.78459	521.15039				-699.04584	-63.60464	760.32434	-717.00287	-38.22092	616.44946	-723.51062	-34.53949	568.95709	
